<svg width="100" height="158" viewBox="0 0 100 158" fill="none" xmlns="http://www.w3.org/2000/svg">
<path d="M-53 2.5C-53 3.88071 -54.1193 5 -55.5 5C-56.8807 5 -58 3.88071 -58 2.5C-58 1.11929 -56.8807 0 -55.5 0C-54.1193 0 -53 1.11929 -53 2.5Z" fill="white"/>
<path d="M-53 104.5C-53 105.881 -54.1193 107 -55.5 107C-56.8807 107 -58 105.881 -58 104.5C-58 103.119 -56.8807 102 -55.5 102C-54.1193 102 -53 103.119 -53 104.5Z" fill="white"/>
<path d="M-53 53.5C-53 54.8807 -54.1193 56 -55.5 56C-56.8807 56 -58 54.8807 -58 53.5C-58 52.1193 -56.8807 51 -55.5 51C-54.1193 51 -53 52.1193 -53 53.5Z" fill="white"/>
<path d="M-53 155.5C-53 156.881 -54.1193 158 -55.5 158C-56.8807 158 -58 156.881 -58 155.5C-58 154.119 -56.8807 153 -55.5 153C-54.1193 153 -53 154.119 -53 155.5Z" fill="white"/>
<path d="M-53 19.5C-53 20.8807 -54.1193 22 -55.5 22C-56.8807 22 -58 20.8807 -58 19.5C-58 18.1193 -56.8807 17 -55.5 17C-54.1193 17 -53 18.1193 -53 19.5Z" fill="white"/>
<path d="M-53 121.5C-53 122.881 -54.1193 124 -55.5 124C-56.8807 124 -58 122.881 -58 121.5C-58 120.119 -56.8807 119 -55.5 119C-54.1193 119 -53 120.119 -53 121.5Z" fill="white"/>
<path d="M-53 70.5C-53 71.8807 -54.1193 73 -55.5 73C-56.8807 73 -58 71.8807 -58 70.5C-58 69.1193 -56.8807 68 -55.5 68C-54.1193 68 -53 69.1193 -53 70.5Z" fill="white"/>
<path d="M-53 36.5C-53 37.8807 -54.1193 39 -55.5 39C-56.8807 39 -58 37.8807 -58 36.5C-58 35.1193 -56.8807 34 -55.5 34C-54.1193 34 -53 35.1193 -53 36.5Z" fill="white"/>
<path d="M-53 138.5C-53 139.881 -54.1193 141 -55.5 141C-56.8807 141 -58 139.881 -58 138.5C-58 137.119 -56.8807 136 -55.5 136C-54.1193 136 -53 137.119 -53 138.5Z" fill="white"/>
<path d="M-53 87.5C-53 88.8807 -54.1193 90 -55.5 90C-56.8807 90 -58 88.8807 -58 87.5C-58 86.1193 -56.8807 85 -55.5 85C-54.1193 85 -53 86.1193 -53 87.5Z" fill="white"/>
<path d="M-2 2.5C-2 3.88071 -3.11929 5 -4.5 5C-5.88071 5 -7 3.88071 -7 2.5C-7 1.11929 -5.88071 0 -4.5 0C-3.11929 0 -2 1.11929 -2 2.5Z" fill="white"/>
<path d="M-2 104.5C-2 105.881 -3.11929 107 -4.5 107C-5.88071 107 -7 105.881 -7 104.5C-7 103.119 -5.88071 102 -4.5 102C-3.11929 102 -2 103.119 -2 104.5Z" fill="white"/>
<path d="M-2 53.5C-2 54.8807 -3.11929 56 -4.5 56C-5.88071 56 -7 54.8807 -7 53.5C-7 52.1193 -5.88071 51 -4.5 51C-3.11929 51 -2 52.1193 -2 53.5Z" fill="white"/>
<path d="M-2 155.5C-2 156.881 -3.11929 158 -4.5 158C-5.88071 158 -7 156.881 -7 155.5C-7 154.119 -5.88071 153 -4.5 153C-3.11929 153 -2 154.119 -2 155.5Z" fill="white"/>
<path d="M-2 19.5C-2 20.8807 -3.11929 22 -4.5 22C-5.88071 22 -7 20.8807 -7 19.5C-7 18.1193 -5.88071 17 -4.5 17C-3.11929 17 -2 18.1193 -2 19.5Z" fill="white"/>
<path d="M-2 121.5C-2 122.881 -3.11929 124 -4.5 124C-5.88071 124 -7 122.881 -7 121.5C-7 120.119 -5.88071 119 -4.5 119C-3.11929 119 -2 120.119 -2 121.5Z" fill="white"/>
<path d="M-2 70.5C-2 71.8807 -3.11929 73 -4.5 73C-5.88071 73 -7 71.8807 -7 70.5C-7 69.1193 -5.88071 68 -4.5 68C-3.11929 68 -2 69.1193 -2 70.5Z" fill="white"/>
<path d="M-2 36.5C-2 37.8807 -3.11929 39 -4.5 39C-5.88071 39 -7 37.8807 -7 36.5C-7 35.1193 -5.88071 34 -4.5 34C-3.11929 34 -2 35.1193 -2 36.5Z" fill="white"/>
<path d="M-2 138.5C-2 139.881 -3.11929 141 -4.5 141C-5.88071 141 -7 139.881 -7 138.5C-7 137.119 -5.88071 136 -4.5 136C-3.11929 136 -2 137.119 -2 138.5Z" fill="white"/>
<path d="M-2 87.5C-2 88.8807 -3.11929 90 -4.5 90C-5.88071 90 -7 88.8807 -7 87.5C-7 86.1193 -5.88071 85 -4.5 85C-3.11929 85 -2 86.1193 -2 87.5Z" fill="white"/>
<path d="M49 2.5C49 3.88071 47.8807 5 46.5 5C45.1193 5 44 3.88071 44 2.5C44 1.11929 45.1193 0 46.5 0C47.8807 0 49 1.11929 49 2.5Z" fill="white"/>
<path d="M49 104.5C49 105.881 47.8807 107 46.5 107C45.1193 107 44 105.881 44 104.5C44 103.119 45.1193 102 46.5 102C47.8807 102 49 103.119 49 104.5Z" fill="white"/>
<path d="M49 53.5C49 54.8807 47.8807 56 46.5 56C45.1193 56 44 54.8807 44 53.5C44 52.1193 45.1193 51 46.5 51C47.8807 51 49 52.1193 49 53.5Z" fill="white"/>
<path d="M49 155.5C49 156.881 47.8807 158 46.5 158C45.1193 158 44 156.881 44 155.5C44 154.119 45.1193 153 46.5 153C47.8807 153 49 154.119 49 155.5Z" fill="white"/>
<path d="M49 19.5C49 20.8807 47.8807 22 46.5 22C45.1193 22 44 20.8807 44 19.5C44 18.1193 45.1193 17 46.5 17C47.8807 17 49 18.1193 49 19.5Z" fill="white"/>
<path d="M49 121.5C49 122.881 47.8807 124 46.5 124C45.1193 124 44 122.881 44 121.5C44 120.119 45.1193 119 46.5 119C47.8807 119 49 120.119 49 121.5Z" fill="white"/>
<path d="M49 70.5C49 71.8807 47.8807 73 46.5 73C45.1193 73 44 71.8807 44 70.5C44 69.1193 45.1193 68 46.5 68C47.8807 68 49 69.1193 49 70.5Z" fill="white"/>
<path d="M49 36.5C49 37.8807 47.8807 39 46.5 39C45.1193 39 44 37.8807 44 36.5C44 35.1193 45.1193 34 46.5 34C47.8807 34 49 35.1193 49 36.5Z" fill="white"/>
<path d="M49 138.5C49 139.881 47.8807 141 46.5 141C45.1193 141 44 139.881 44 138.5C44 137.119 45.1193 136 46.5 136C47.8807 136 49 137.119 49 138.5Z" fill="white"/>
<path d="M49 87.5C49 88.8807 47.8807 90 46.5 90C45.1193 90 44 88.8807 44 87.5C44 86.1193 45.1193 85 46.5 85C47.8807 85 49 86.1193 49 87.5Z" fill="white"/>
<path d="M-36 2.5C-36 3.88071 -37.1193 5 -38.5 5C-39.8807 5 -41 3.88071 -41 2.5C-41 1.11929 -39.8807 0 -38.5 0C-37.1193 0 -36 1.11929 -36 2.5Z" fill="white"/>
<path d="M-36 104.5C-36 105.881 -37.1193 107 -38.5 107C-39.8807 107 -41 105.881 -41 104.5C-41 103.119 -39.8807 102 -38.5 102C-37.1193 102 -36 103.119 -36 104.5Z" fill="white"/>
<path d="M-36 53.5C-36 54.8807 -37.1193 56 -38.5 56C-39.8807 56 -41 54.8807 -41 53.5C-41 52.1193 -39.8807 51 -38.5 51C-37.1193 51 -36 52.1193 -36 53.5Z" fill="white"/>
<path d="M-36 155.5C-36 156.881 -37.1193 158 -38.5 158C-39.8807 158 -41 156.881 -41 155.5C-41 154.119 -39.8807 153 -38.5 153C-37.1193 153 -36 154.119 -36 155.5Z" fill="white"/>
<path d="M-36 19.5C-36 20.8807 -37.1193 22 -38.5 22C-39.8807 22 -41 20.8807 -41 19.5C-41 18.1193 -39.8807 17 -38.5 17C-37.1193 17 -36 18.1193 -36 19.5Z" fill="white"/>
<path d="M-36 121.5C-36 122.881 -37.1193 124 -38.5 124C-39.8807 124 -41 122.881 -41 121.5C-41 120.119 -39.8807 119 -38.5 119C-37.1193 119 -36 120.119 -36 121.5Z" fill="white"/>
<path d="M-36 70.5C-36 71.8807 -37.1193 73 -38.5 73C-39.8807 73 -41 71.8807 -41 70.5C-41 69.1193 -39.8807 68 -38.5 68C-37.1193 68 -36 69.1193 -36 70.5Z" fill="white"/>
<path d="M-36 36.5C-36 37.8807 -37.1193 39 -38.5 39C-39.8807 39 -41 37.8807 -41 36.5C-41 35.1193 -39.8807 34 -38.5 34C-37.1193 34 -36 35.1193 -36 36.5Z" fill="white"/>
<path d="M-36 138.5C-36 139.881 -37.1193 141 -38.5 141C-39.8807 141 -41 139.881 -41 138.5C-41 137.119 -39.8807 136 -38.5 136C-37.1193 136 -36 137.119 -36 138.5Z" fill="white"/>
<path d="M-36 87.5C-36 88.8807 -37.1193 90 -38.5 90C-39.8807 90 -41 88.8807 -41 87.5C-41 86.1193 -39.8807 85 -38.5 85C-37.1193 85 -36 86.1193 -36 87.5Z" fill="white"/>
<path d="M15 2.5C15 3.88071 13.8807 5 12.5 5C11.1193 5 10 3.88071 10 2.5C10 1.11929 11.1193 0 12.5 0C13.8807 0 15 1.11929 15 2.5Z" fill="white"/>
<path d="M15 104.5C15 105.881 13.8807 107 12.5 107C11.1193 107 10 105.881 10 104.5C10 103.119 11.1193 102 12.5 102C13.8807 102 15 103.119 15 104.5Z" fill="white"/>
<path d="M15 53.5C15 54.8807 13.8807 56 12.5 56C11.1193 56 10 54.8807 10 53.5C10 52.1193 11.1193 51 12.5 51C13.8807 51 15 52.1193 15 53.5Z" fill="white"/>
<path d="M15 155.5C15 156.881 13.8807 158 12.5 158C11.1193 158 10 156.881 10 155.5C10 154.119 11.1193 153 12.5 153C13.8807 153 15 154.119 15 155.5Z" fill="white"/>
<path d="M15 19.5C15 20.8807 13.8807 22 12.5 22C11.1193 22 10 20.8807 10 19.5C10 18.1193 11.1193 17 12.5 17C13.8807 17 15 18.1193 15 19.5Z" fill="white"/>
<path d="M15 121.5C15 122.881 13.8807 124 12.5 124C11.1193 124 10 122.881 10 121.5C10 120.119 11.1193 119 12.5 119C13.8807 119 15 120.119 15 121.5Z" fill="white"/>
<path d="M15 70.5C15 71.8807 13.8807 73 12.5 73C11.1193 73 10 71.8807 10 70.5C10 69.1193 11.1193 68 12.5 68C13.8807 68 15 69.1193 15 70.5Z" fill="white"/>
<path d="M15 36.5C15 37.8807 13.8807 39 12.5 39C11.1193 39 10 37.8807 10 36.5C10 35.1193 11.1193 34 12.5 34C13.8807 34 15 35.1193 15 36.5Z" fill="white"/>
<path d="M15 138.5C15 139.881 13.8807 141 12.5 141C11.1193 141 10 139.881 10 138.5C10 137.119 11.1193 136 12.5 136C13.8807 136 15 137.119 15 138.5Z" fill="white"/>
<path d="M15 87.5C15 88.8807 13.8807 90 12.5 90C11.1193 90 10 88.8807 10 87.5C10 86.1193 11.1193 85 12.5 85C13.8807 85 15 86.1193 15 87.5Z" fill="white"/>
<path d="M66 2.5C66 3.88071 64.8807 5 63.5 5C62.1193 5 61 3.88071 61 2.5C61 1.11929 62.1193 0 63.5 0C64.8807 0 66 1.11929 66 2.5Z" fill="white"/>
<path d="M66 104.5C66 105.881 64.8807 107 63.5 107C62.1193 107 61 105.881 61 104.5C61 103.119 62.1193 102 63.5 102C64.8807 102 66 103.119 66 104.5Z" fill="white"/>
<path d="M66 53.5C66 54.8807 64.8807 56 63.5 56C62.1193 56 61 54.8807 61 53.5C61 52.1193 62.1193 51 63.5 51C64.8807 51 66 52.1193 66 53.5Z" fill="white"/>
<path d="M66 155.5C66 156.881 64.8807 158 63.5 158C62.1193 158 61 156.881 61 155.5C61 154.119 62.1193 153 63.5 153C64.8807 153 66 154.119 66 155.5Z" fill="white"/>
<path d="M66 19.5C66 20.8807 64.8807 22 63.5 22C62.1193 22 61 20.8807 61 19.5C61 18.1193 62.1193 17 63.5 17C64.8807 17 66 18.1193 66 19.5Z" fill="white"/>
<path d="M66 121.5C66 122.881 64.8807 124 63.5 124C62.1193 124 61 122.881 61 121.5C61 120.119 62.1193 119 63.5 119C64.8807 119 66 120.119 66 121.5Z" fill="white"/>
<path d="M66 70.5C66 71.8807 64.8807 73 63.5 73C62.1193 73 61 71.8807 61 70.5C61 69.1193 62.1193 68 63.5 68C64.8807 68 66 69.1193 66 70.5Z" fill="white"/>
<path d="M66 36.5C66 37.8807 64.8807 39 63.5 39C62.1193 39 61 37.8807 61 36.5C61 35.1193 62.1193 34 63.5 34C64.8807 34 66 35.1193 66 36.5Z" fill="white"/>
<path d="M66 138.5C66 139.881 64.8807 141 63.5 141C62.1193 141 61 139.881 61 138.5C61 137.119 62.1193 136 63.5 136C64.8807 136 66 137.119 66 138.5Z" fill="white"/>
<path d="M66 87.5C66 88.8807 64.8807 90 63.5 90C62.1193 90 61 88.8807 61 87.5C61 86.1193 62.1193 85 63.5 85C64.8807 85 66 86.1193 66 87.5Z" fill="white"/>
<path d="M-19 2.5C-19 3.88071 -20.1193 5 -21.5 5C-22.8807 5 -24 3.88071 -24 2.5C-24 1.11929 -22.8807 0 -21.5 0C-20.1193 0 -19 1.11929 -19 2.5Z" fill="white"/>
<path d="M-19 104.5C-19 105.881 -20.1193 107 -21.5 107C-22.8807 107 -24 105.881 -24 104.5C-24 103.119 -22.8807 102 -21.5 102C-20.1193 102 -19 103.119 -19 104.5Z" fill="white"/>
<path d="M-19 53.5C-19 54.8807 -20.1193 56 -21.5 56C-22.8807 56 -24 54.8807 -24 53.5C-24 52.1193 -22.8807 51 -21.5 51C-20.1193 51 -19 52.1193 -19 53.5Z" fill="white"/>
<path d="M-19 155.5C-19 156.881 -20.1193 158 -21.5 158C-22.8807 158 -24 156.881 -24 155.5C-24 154.119 -22.8807 153 -21.5 153C-20.1193 153 -19 154.119 -19 155.5Z" fill="white"/>
<path d="M-19 19.5C-19 20.8807 -20.1193 22 -21.5 22C-22.8807 22 -24 20.8807 -24 19.5C-24 18.1193 -22.8807 17 -21.5 17C-20.1193 17 -19 18.1193 -19 19.5Z" fill="white"/>
<path d="M-19 121.5C-19 122.881 -20.1193 124 -21.5 124C-22.8807 124 -24 122.881 -24 121.5C-24 120.119 -22.8807 119 -21.5 119C-20.1193 119 -19 120.119 -19 121.5Z" fill="white"/>
<path d="M-19 70.5C-19 71.8807 -20.1193 73 -21.5 73C-22.8807 73 -24 71.8807 -24 70.5C-24 69.1193 -22.8807 68 -21.5 68C-20.1193 68 -19 69.1193 -19 70.5Z" fill="white"/>
<path d="M-19 36.5C-19 37.8807 -20.1193 39 -21.5 39C-22.8807 39 -24 37.8807 -24 36.5C-24 35.1193 -22.8807 34 -21.5 34C-20.1193 34 -19 35.1193 -19 36.5Z" fill="white"/>
<path d="M-19 138.5C-19 139.881 -20.1193 141 -21.5 141C-22.8807 141 -24 139.881 -24 138.5C-24 137.119 -22.8807 136 -21.5 136C-20.1193 136 -19 137.119 -19 138.5Z" fill="white"/>
<path d="M-19 87.5C-19 88.8807 -20.1193 90 -21.5 90C-22.8807 90 -24 88.8807 -24 87.5C-24 86.1193 -22.8807 85 -21.5 85C-20.1193 85 -19 86.1193 -19 87.5Z" fill="white"/>
<path d="M32 2.5C32 3.88071 30.8807 5 29.5 5C28.1193 5 27 3.88071 27 2.5C27 1.11929 28.1193 0 29.5 0C30.8807 0 32 1.11929 32 2.5Z" fill="white"/>
<path d="M32 104.5C32 105.881 30.8807 107 29.5 107C28.1193 107 27 105.881 27 104.5C27 103.119 28.1193 102 29.5 102C30.8807 102 32 103.119 32 104.5Z" fill="white"/>
<path d="M32 53.5C32 54.8807 30.8807 56 29.5 56C28.1193 56 27 54.8807 27 53.5C27 52.1193 28.1193 51 29.5 51C30.8807 51 32 52.1193 32 53.5Z" fill="white"/>
<path d="M32 155.5C32 156.881 30.8807 158 29.5 158C28.1193 158 27 156.881 27 155.5C27 154.119 28.1193 153 29.5 153C30.8807 153 32 154.119 32 155.5Z" fill="white"/>
<path d="M32 19.5C32 20.8807 30.8807 22 29.5 22C28.1193 22 27 20.8807 27 19.5C27 18.1193 28.1193 17 29.5 17C30.8807 17 32 18.1193 32 19.5Z" fill="white"/>
<path d="M32 121.5C32 122.881 30.8807 124 29.5 124C28.1193 124 27 122.881 27 121.5C27 120.119 28.1193 119 29.5 119C30.8807 119 32 120.119 32 121.5Z" fill="white"/>
<path d="M32 70.5C32 71.8807 30.8807 73 29.5 73C28.1193 73 27 71.8807 27 70.5C27 69.1193 28.1193 68 29.5 68C30.8807 68 32 69.1193 32 70.5Z" fill="white"/>
<path d="M32 36.5C32 37.8807 30.8807 39 29.5 39C28.1193 39 27 37.8807 27 36.5C27 35.1193 28.1193 34 29.5 34C30.8807 34 32 35.1193 32 36.5Z" fill="white"/>
<path d="M32 138.5C32 139.881 30.8807 141 29.5 141C28.1193 141 27 139.881 27 138.5C27 137.119 28.1193 136 29.5 136C30.8807 136 32 137.119 32 138.5Z" fill="white"/>
<path d="M32 87.5C32 88.8807 30.8807 90 29.5 90C28.1193 90 27 88.8807 27 87.5C27 86.1193 28.1193 85 29.5 85C30.8807 85 32 86.1193 32 87.5Z" fill="white"/>
<path d="M83 2.5C83 3.88071 81.8807 5 80.5 5C79.1193 5 78 3.88071 78 2.5C78 1.11929 79.1193 0 80.5 0C81.8807 0 83 1.11929 83 2.5Z" fill="white"/>
<path d="M83 104.5C83 105.881 81.8807 107 80.5 107C79.1193 107 78 105.881 78 104.5C78 103.119 79.1193 102 80.5 102C81.8807 102 83 103.119 83 104.5Z" fill="white"/>
<path d="M83 53.5C83 54.8807 81.8807 56 80.5 56C79.1193 56 78 54.8807 78 53.5C78 52.1193 79.1193 51 80.5 51C81.8807 51 83 52.1193 83 53.5Z" fill="white"/>
<path d="M83 155.5C83 156.881 81.8807 158 80.5 158C79.1193 158 78 156.881 78 155.5C78 154.119 79.1193 153 80.5 153C81.8807 153 83 154.119 83 155.5Z" fill="white"/>
<path d="M83 19.5C83 20.8807 81.8807 22 80.5 22C79.1193 22 78 20.8807 78 19.5C78 18.1193 79.1193 17 80.5 17C81.8807 17 83 18.1193 83 19.5Z" fill="white"/>
<path d="M83 121.5C83 122.881 81.8807 124 80.5 124C79.1193 124 78 122.881 78 121.5C78 120.119 79.1193 119 80.5 119C81.8807 119 83 120.119 83 121.5Z" fill="white"/>
<path d="M83 70.5C83 71.8807 81.8807 73 80.5 73C79.1193 73 78 71.8807 78 70.5C78 69.1193 79.1193 68 80.5 68C81.8807 68 83 69.1193 83 70.5Z" fill="white"/>
<path d="M83 36.5C83 37.8807 81.8807 39 80.5 39C79.1193 39 78 37.8807 78 36.5C78 35.1193 79.1193 34 80.5 34C81.8807 34 83 35.1193 83 36.5Z" fill="white"/>
<path d="M83 138.5C83 139.881 81.8807 141 80.5 141C79.1193 141 78 139.881 78 138.5C78 137.119 79.1193 136 80.5 136C81.8807 136 83 137.119 83 138.5Z" fill="white"/>
<path d="M83 87.5C83 88.8807 81.8807 90 80.5 90C79.1193 90 78 88.8807 78 87.5C78 86.1193 79.1193 85 80.5 85C81.8807 85 83 86.1193 83 87.5Z" fill="white"/>
<path d="M100 2.5C100 3.88071 98.8807 5 97.5 5C96.1193 5 95 3.88071 95 2.5C95 1.11929 96.1193 0 97.5 0C98.8807 0 100 1.11929 100 2.5Z" fill="white"/>
<path d="M100 104.5C100 105.881 98.8807 107 97.5 107C96.1193 107 95 105.881 95 104.5C95 103.119 96.1193 102 97.5 102C98.8807 102 100 103.119 100 104.5Z" fill="white"/>
<path d="M100 53.5C100 54.8807 98.8807 56 97.5 56C96.1193 56 95 54.8807 95 53.5C95 52.1193 96.1193 51 97.5 51C98.8807 51 100 52.1193 100 53.5Z" fill="white"/>
<path d="M100 155.5C100 156.881 98.8807 158 97.5 158C96.1193 158 95 156.881 95 155.5C95 154.119 96.1193 153 97.5 153C98.8807 153 100 154.119 100 155.5Z" fill="white"/>
<path d="M100 19.5C100 20.8807 98.8807 22 97.5 22C96.1193 22 95 20.8807 95 19.5C95 18.1193 96.1193 17 97.5 17C98.8807 17 100 18.1193 100 19.5Z" fill="white"/>
<path d="M100 121.5C100 122.881 98.8807 124 97.5 124C96.1193 124 95 122.881 95 121.5C95 120.119 96.1193 119 97.5 119C98.8807 119 100 120.119 100 121.5Z" fill="white"/>
<path d="M100 70.5C100 71.8807 98.8807 73 97.5 73C96.1193 73 95 71.8807 95 70.5C95 69.1193 96.1193 68 97.5 68C98.8807 68 100 69.1193 100 70.5Z" fill="white"/>
<path d="M100 36.5C100 37.8807 98.8807 39 97.5 39C96.1193 39 95 37.8807 95 36.5C95 35.1193 96.1193 34 97.5 34C98.8807 34 100 35.1193 100 36.5Z" fill="white"/>
<path d="M100 138.5C100 139.881 98.8807 141 97.5 141C96.1193 141 95 139.881 95 138.5C95 137.119 96.1193 136 97.5 136C98.8807 136 100 137.119 100 138.5Z" fill="white"/>
<path d="M100 87.5C100 88.8807 98.8807 90 97.5 90C96.1193 90 95 88.8807 95 87.5C95 86.1193 96.1193 85 97.5 85C98.8807 85 100 86.1193 100 87.5Z" fill="white"/>
</svg>
