<svg width="79" height="158" viewBox="0 0 79 158" fill="none" xmlns="http://www.w3.org/2000/svg">
<path d="M-74 2.5C-74 3.88071 -75.1193 5 -76.5 5C-77.8807 5 -79 3.88071 -79 2.5C-79 1.11929 -77.8807 0 -76.5 0C-75.1193 0 -74 1.11929 -74 2.5Z" fill="#35499C"/>
<path d="M-74 104.5C-74 105.881 -75.1193 107 -76.5 107C-77.8807 107 -79 105.881 -79 104.5C-79 103.119 -77.8807 102 -76.5 102C-75.1193 102 -74 103.119 -74 104.5Z" fill="#35499C"/>
<path d="M-74 53.5C-74 54.8807 -75.1193 56 -76.5 56C-77.8807 56 -79 54.8807 -79 53.5C-79 52.1193 -77.8807 51 -76.5 51C-75.1193 51 -74 52.1193 -74 53.5Z" fill="#35499C"/>
<path d="M-74 155.5C-74 156.881 -75.1193 158 -76.5 158C-77.8807 158 -79 156.881 -79 155.5C-79 154.119 -77.8807 153 -76.5 153C-75.1193 153 -74 154.119 -74 155.5Z" fill="#35499C"/>
<path d="M-74 19.5C-74 20.8807 -75.1193 22 -76.5 22C-77.8807 22 -79 20.8807 -79 19.5C-79 18.1193 -77.8807 17 -76.5 17C-75.1193 17 -74 18.1193 -74 19.5Z" fill="#35499C"/>
<path d="M-74 121.5C-74 122.881 -75.1193 124 -76.5 124C-77.8807 124 -79 122.881 -79 121.5C-79 120.119 -77.8807 119 -76.5 119C-75.1193 119 -74 120.119 -74 121.5Z" fill="#35499C"/>
<path d="M-74 70.5C-74 71.8807 -75.1193 73 -76.5 73C-77.8807 73 -79 71.8807 -79 70.5C-79 69.1193 -77.8807 68 -76.5 68C-75.1193 68 -74 69.1193 -74 70.5Z" fill="#35499C"/>
<path d="M-74 36.5C-74 37.8807 -75.1193 39 -76.5 39C-77.8807 39 -79 37.8807 -79 36.5C-79 35.1193 -77.8807 34 -76.5 34C-75.1193 34 -74 35.1193 -74 36.5Z" fill="#35499C"/>
<path d="M-74 138.5C-74 139.881 -75.1193 141 -76.5 141C-77.8807 141 -79 139.881 -79 138.5C-79 137.119 -77.8807 136 -76.5 136C-75.1193 136 -74 137.119 -74 138.5Z" fill="#35499C"/>
<path d="M-74 87.5C-74 88.8807 -75.1193 90 -76.5 90C-77.8807 90 -79 88.8807 -79 87.5C-79 86.1193 -77.8807 85 -76.5 85C-75.1193 85 -74 86.1193 -74 87.5Z" fill="#35499C"/>
<path d="M-23 2.5C-23 3.88071 -24.1193 5 -25.5 5C-26.8807 5 -28 3.88071 -28 2.5C-28 1.11929 -26.8807 0 -25.5 0C-24.1193 0 -23 1.11929 -23 2.5Z" fill="#35499C"/>
<path d="M-23 104.5C-23 105.881 -24.1193 107 -25.5 107C-26.8807 107 -28 105.881 -28 104.5C-28 103.119 -26.8807 102 -25.5 102C-24.1193 102 -23 103.119 -23 104.5Z" fill="#35499C"/>
<path d="M-23 53.5C-23 54.8807 -24.1193 56 -25.5 56C-26.8807 56 -28 54.8807 -28 53.5C-28 52.1193 -26.8807 51 -25.5 51C-24.1193 51 -23 52.1193 -23 53.5Z" fill="#35499C"/>
<path d="M-23 155.5C-23 156.881 -24.1193 158 -25.5 158C-26.8807 158 -28 156.881 -28 155.5C-28 154.119 -26.8807 153 -25.5 153C-24.1193 153 -23 154.119 -23 155.5Z" fill="#35499C"/>
<path d="M-23 19.5C-23 20.8807 -24.1193 22 -25.5 22C-26.8807 22 -28 20.8807 -28 19.5C-28 18.1193 -26.8807 17 -25.5 17C-24.1193 17 -23 18.1193 -23 19.5Z" fill="#35499C"/>
<path d="M-23 121.5C-23 122.881 -24.1193 124 -25.5 124C-26.8807 124 -28 122.881 -28 121.5C-28 120.119 -26.8807 119 -25.5 119C-24.1193 119 -23 120.119 -23 121.5Z" fill="#35499C"/>
<path d="M-23 70.5C-23 71.8807 -24.1193 73 -25.5 73C-26.8807 73 -28 71.8807 -28 70.5C-28 69.1193 -26.8807 68 -25.5 68C-24.1193 68 -23 69.1193 -23 70.5Z" fill="#35499C"/>
<path d="M-23 36.5C-23 37.8807 -24.1193 39 -25.5 39C-26.8807 39 -28 37.8807 -28 36.5C-28 35.1193 -26.8807 34 -25.5 34C-24.1193 34 -23 35.1193 -23 36.5Z" fill="#35499C"/>
<path d="M-23 138.5C-23 139.881 -24.1193 141 -25.5 141C-26.8807 141 -28 139.881 -28 138.5C-28 137.119 -26.8807 136 -25.5 136C-24.1193 136 -23 137.119 -23 138.5Z" fill="#35499C"/>
<path d="M-23 87.5C-23 88.8807 -24.1193 90 -25.5 90C-26.8807 90 -28 88.8807 -28 87.5C-28 86.1193 -26.8807 85 -25.5 85C-24.1193 85 -23 86.1193 -23 87.5Z" fill="#35499C"/>
<path d="M28 2.5C28 3.88071 26.8807 5 25.5 5C24.1193 5 23 3.88071 23 2.5C23 1.11929 24.1193 0 25.5 0C26.8807 0 28 1.11929 28 2.5Z" fill="#35499C"/>
<path d="M28 104.5C28 105.881 26.8807 107 25.5 107C24.1193 107 23 105.881 23 104.5C23 103.119 24.1193 102 25.5 102C26.8807 102 28 103.119 28 104.5Z" fill="#35499C"/>
<path d="M28 53.5C28 54.8807 26.8807 56 25.5 56C24.1193 56 23 54.8807 23 53.5C23 52.1193 24.1193 51 25.5 51C26.8807 51 28 52.1193 28 53.5Z" fill="#35499C"/>
<path d="M28 155.5C28 156.881 26.8807 158 25.5 158C24.1193 158 23 156.881 23 155.5C23 154.119 24.1193 153 25.5 153C26.8807 153 28 154.119 28 155.5Z" fill="#35499C"/>
<path d="M28 19.5C28 20.8807 26.8807 22 25.5 22C24.1193 22 23 20.8807 23 19.5C23 18.1193 24.1193 17 25.5 17C26.8807 17 28 18.1193 28 19.5Z" fill="#35499C"/>
<path d="M28 121.5C28 122.881 26.8807 124 25.5 124C24.1193 124 23 122.881 23 121.5C23 120.119 24.1193 119 25.5 119C26.8807 119 28 120.119 28 121.5Z" fill="#35499C"/>
<path d="M28 70.5C28 71.8807 26.8807 73 25.5 73C24.1193 73 23 71.8807 23 70.5C23 69.1193 24.1193 68 25.5 68C26.8807 68 28 69.1193 28 70.5Z" fill="#35499C"/>
<path d="M28 36.5C28 37.8807 26.8807 39 25.5 39C24.1193 39 23 37.8807 23 36.5C23 35.1193 24.1193 34 25.5 34C26.8807 34 28 35.1193 28 36.5Z" fill="#35499C"/>
<path d="M28 138.5C28 139.881 26.8807 141 25.5 141C24.1193 141 23 139.881 23 138.5C23 137.119 24.1193 136 25.5 136C26.8807 136 28 137.119 28 138.5Z" fill="#35499C"/>
<path d="M28 87.5C28 88.8807 26.8807 90 25.5 90C24.1193 90 23 88.8807 23 87.5C23 86.1193 24.1193 85 25.5 85C26.8807 85 28 86.1193 28 87.5Z" fill="#35499C"/>
<path d="M-57 2.5C-57 3.88071 -58.1193 5 -59.5 5C-60.8807 5 -62 3.88071 -62 2.5C-62 1.11929 -60.8807 0 -59.5 0C-58.1193 0 -57 1.11929 -57 2.5Z" fill="#35499C"/>
<path d="M-57 104.5C-57 105.881 -58.1193 107 -59.5 107C-60.8807 107 -62 105.881 -62 104.5C-62 103.119 -60.8807 102 -59.5 102C-58.1193 102 -57 103.119 -57 104.5Z" fill="#35499C"/>
<path d="M-57 53.5C-57 54.8807 -58.1193 56 -59.5 56C-60.8807 56 -62 54.8807 -62 53.5C-62 52.1193 -60.8807 51 -59.5 51C-58.1193 51 -57 52.1193 -57 53.5Z" fill="#35499C"/>
<path d="M-57 155.5C-57 156.881 -58.1193 158 -59.5 158C-60.8807 158 -62 156.881 -62 155.5C-62 154.119 -60.8807 153 -59.5 153C-58.1193 153 -57 154.119 -57 155.5Z" fill="#35499C"/>
<path d="M-57 19.5C-57 20.8807 -58.1193 22 -59.5 22C-60.8807 22 -62 20.8807 -62 19.5C-62 18.1193 -60.8807 17 -59.5 17C-58.1193 17 -57 18.1193 -57 19.5Z" fill="#35499C"/>
<path d="M-57 121.5C-57 122.881 -58.1193 124 -59.5 124C-60.8807 124 -62 122.881 -62 121.5C-62 120.119 -60.8807 119 -59.5 119C-58.1193 119 -57 120.119 -57 121.5Z" fill="#35499C"/>
<path d="M-57 70.5C-57 71.8807 -58.1193 73 -59.5 73C-60.8807 73 -62 71.8807 -62 70.5C-62 69.1193 -60.8807 68 -59.5 68C-58.1193 68 -57 69.1193 -57 70.5Z" fill="#35499C"/>
<path d="M-57 36.5C-57 37.8807 -58.1193 39 -59.5 39C-60.8807 39 -62 37.8807 -62 36.5C-62 35.1193 -60.8807 34 -59.5 34C-58.1193 34 -57 35.1193 -57 36.5Z" fill="#35499C"/>
<path d="M-57 138.5C-57 139.881 -58.1193 141 -59.5 141C-60.8807 141 -62 139.881 -62 138.5C-62 137.119 -60.8807 136 -59.5 136C-58.1193 136 -57 137.119 -57 138.5Z" fill="#35499C"/>
<path d="M-57 87.5C-57 88.8807 -58.1193 90 -59.5 90C-60.8807 90 -62 88.8807 -62 87.5C-62 86.1193 -60.8807 85 -59.5 85C-58.1193 85 -57 86.1193 -57 87.5Z" fill="#35499C"/>
<path d="M-6 2.5C-6 3.88071 -7.11929 5 -8.5 5C-9.88071 5 -11 3.88071 -11 2.5C-11 1.11929 -9.88071 0 -8.5 0C-7.11929 0 -6 1.11929 -6 2.5Z" fill="#35499C"/>
<path d="M-6 104.5C-6 105.881 -7.11929 107 -8.5 107C-9.88071 107 -11 105.881 -11 104.5C-11 103.119 -9.88071 102 -8.5 102C-7.11929 102 -6 103.119 -6 104.5Z" fill="#35499C"/>
<path d="M-6 53.5C-6 54.8807 -7.11929 56 -8.5 56C-9.88071 56 -11 54.8807 -11 53.5C-11 52.1193 -9.88071 51 -8.5 51C-7.11929 51 -6 52.1193 -6 53.5Z" fill="#35499C"/>
<path d="M-6 155.5C-6 156.881 -7.11929 158 -8.5 158C-9.88071 158 -11 156.881 -11 155.5C-11 154.119 -9.88071 153 -8.5 153C-7.11929 153 -6 154.119 -6 155.5Z" fill="#35499C"/>
<path d="M-6 19.5C-6 20.8807 -7.11929 22 -8.5 22C-9.88071 22 -11 20.8807 -11 19.5C-11 18.1193 -9.88071 17 -8.5 17C-7.11929 17 -6 18.1193 -6 19.5Z" fill="#35499C"/>
<path d="M-6 121.5C-6 122.881 -7.11929 124 -8.5 124C-9.88071 124 -11 122.881 -11 121.5C-11 120.119 -9.88071 119 -8.5 119C-7.11929 119 -6 120.119 -6 121.5Z" fill="#35499C"/>
<path d="M-6 70.5C-6 71.8807 -7.11929 73 -8.5 73C-9.88071 73 -11 71.8807 -11 70.5C-11 69.1193 -9.88071 68 -8.5 68C-7.11929 68 -6 69.1193 -6 70.5Z" fill="#35499C"/>
<path d="M-6 36.5C-6 37.8807 -7.11929 39 -8.5 39C-9.88071 39 -11 37.8807 -11 36.5C-11 35.1193 -9.88071 34 -8.5 34C-7.11929 34 -6 35.1193 -6 36.5Z" fill="#35499C"/>
<path d="M-6 138.5C-6 139.881 -7.11929 141 -8.5 141C-9.88071 141 -11 139.881 -11 138.5C-11 137.119 -9.88071 136 -8.5 136C-7.11929 136 -6 137.119 -6 138.5Z" fill="#35499C"/>
<path d="M-6 87.5C-6 88.8807 -7.11929 90 -8.5 90C-9.88071 90 -11 88.8807 -11 87.5C-11 86.1193 -9.88071 85 -8.5 85C-7.11929 85 -6 86.1193 -6 87.5Z" fill="#35499C"/>
<path d="M45 2.5C45 3.88071 43.8807 5 42.5 5C41.1193 5 40 3.88071 40 2.5C40 1.11929 41.1193 0 42.5 0C43.8807 0 45 1.11929 45 2.5Z" fill="#35499C"/>
<path d="M45 104.5C45 105.881 43.8807 107 42.5 107C41.1193 107 40 105.881 40 104.5C40 103.119 41.1193 102 42.5 102C43.8807 102 45 103.119 45 104.5Z" fill="#35499C"/>
<path d="M45 53.5C45 54.8807 43.8807 56 42.5 56C41.1193 56 40 54.8807 40 53.5C40 52.1193 41.1193 51 42.5 51C43.8807 51 45 52.1193 45 53.5Z" fill="#35499C"/>
<path d="M45 155.5C45 156.881 43.8807 158 42.5 158C41.1193 158 40 156.881 40 155.5C40 154.119 41.1193 153 42.5 153C43.8807 153 45 154.119 45 155.5Z" fill="#35499C"/>
<path d="M45 19.5C45 20.8807 43.8807 22 42.5 22C41.1193 22 40 20.8807 40 19.5C40 18.1193 41.1193 17 42.5 17C43.8807 17 45 18.1193 45 19.5Z" fill="#35499C"/>
<path d="M45 121.5C45 122.881 43.8807 124 42.5 124C41.1193 124 40 122.881 40 121.5C40 120.119 41.1193 119 42.5 119C43.8807 119 45 120.119 45 121.5Z" fill="#35499C"/>
<path d="M45 70.5C45 71.8807 43.8807 73 42.5 73C41.1193 73 40 71.8807 40 70.5C40 69.1193 41.1193 68 42.5 68C43.8807 68 45 69.1193 45 70.5Z" fill="#35499C"/>
<path d="M45 36.5C45 37.8807 43.8807 39 42.5 39C41.1193 39 40 37.8807 40 36.5C40 35.1193 41.1193 34 42.5 34C43.8807 34 45 35.1193 45 36.5Z" fill="#35499C"/>
<path d="M45 138.5C45 139.881 43.8807 141 42.5 141C41.1193 141 40 139.881 40 138.5C40 137.119 41.1193 136 42.5 136C43.8807 136 45 137.119 45 138.5Z" fill="#35499C"/>
<path d="M45 87.5C45 88.8807 43.8807 90 42.5 90C41.1193 90 40 88.8807 40 87.5C40 86.1193 41.1193 85 42.5 85C43.8807 85 45 86.1193 45 87.5Z" fill="#35499C"/>
<path d="M-40 2.5C-40 3.88071 -41.1193 5 -42.5 5C-43.8807 5 -45 3.88071 -45 2.5C-45 1.11929 -43.8807 0 -42.5 0C-41.1193 0 -40 1.11929 -40 2.5Z" fill="#35499C"/>
<path d="M-40 104.5C-40 105.881 -41.1193 107 -42.5 107C-43.8807 107 -45 105.881 -45 104.5C-45 103.119 -43.8807 102 -42.5 102C-41.1193 102 -40 103.119 -40 104.5Z" fill="#35499C"/>
<path d="M-40 53.5C-40 54.8807 -41.1193 56 -42.5 56C-43.8807 56 -45 54.8807 -45 53.5C-45 52.1193 -43.8807 51 -42.5 51C-41.1193 51 -40 52.1193 -40 53.5Z" fill="#35499C"/>
<path d="M-40 155.5C-40 156.881 -41.1193 158 -42.5 158C-43.8807 158 -45 156.881 -45 155.5C-45 154.119 -43.8807 153 -42.5 153C-41.1193 153 -40 154.119 -40 155.5Z" fill="#35499C"/>
<path d="M-40 19.5C-40 20.8807 -41.1193 22 -42.5 22C-43.8807 22 -45 20.8807 -45 19.5C-45 18.1193 -43.8807 17 -42.5 17C-41.1193 17 -40 18.1193 -40 19.5Z" fill="#35499C"/>
<path d="M-40 121.5C-40 122.881 -41.1193 124 -42.5 124C-43.8807 124 -45 122.881 -45 121.5C-45 120.119 -43.8807 119 -42.5 119C-41.1193 119 -40 120.119 -40 121.5Z" fill="#35499C"/>
<path d="M-40 70.5C-40 71.8807 -41.1193 73 -42.5 73C-43.8807 73 -45 71.8807 -45 70.5C-45 69.1193 -43.8807 68 -42.5 68C-41.1193 68 -40 69.1193 -40 70.5Z" fill="#35499C"/>
<path d="M-40 36.5C-40 37.8807 -41.1193 39 -42.5 39C-43.8807 39 -45 37.8807 -45 36.5C-45 35.1193 -43.8807 34 -42.5 34C-41.1193 34 -40 35.1193 -40 36.5Z" fill="#35499C"/>
<path d="M-40 138.5C-40 139.881 -41.1193 141 -42.5 141C-43.8807 141 -45 139.881 -45 138.5C-45 137.119 -43.8807 136 -42.5 136C-41.1193 136 -40 137.119 -40 138.5Z" fill="#35499C"/>
<path d="M-40 87.5C-40 88.8807 -41.1193 90 -42.5 90C-43.8807 90 -45 88.8807 -45 87.5C-45 86.1193 -43.8807 85 -42.5 85C-41.1193 85 -40 86.1193 -40 87.5Z" fill="#35499C"/>
<path d="M11 2.5C11 3.88071 9.88071 5 8.5 5C7.11929 5 6 3.88071 6 2.5C6 1.11929 7.11929 0 8.5 0C9.88071 0 11 1.11929 11 2.5Z" fill="#35499C"/>
<path d="M11 104.5C11 105.881 9.88071 107 8.5 107C7.11929 107 6 105.881 6 104.5C6 103.119 7.11929 102 8.5 102C9.88071 102 11 103.119 11 104.5Z" fill="#35499C"/>
<path d="M11 53.5C11 54.8807 9.88071 56 8.5 56C7.11929 56 6 54.8807 6 53.5C6 52.1193 7.11929 51 8.5 51C9.88071 51 11 52.1193 11 53.5Z" fill="#35499C"/>
<path d="M11 155.5C11 156.881 9.88071 158 8.5 158C7.11929 158 6 156.881 6 155.5C6 154.119 7.11929 153 8.5 153C9.88071 153 11 154.119 11 155.5Z" fill="#35499C"/>
<path d="M11 19.5C11 20.8807 9.88071 22 8.5 22C7.11929 22 6 20.8807 6 19.5C6 18.1193 7.11929 17 8.5 17C9.88071 17 11 18.1193 11 19.5Z" fill="#35499C"/>
<path d="M11 121.5C11 122.881 9.88071 124 8.5 124C7.11929 124 6 122.881 6 121.5C6 120.119 7.11929 119 8.5 119C9.88071 119 11 120.119 11 121.5Z" fill="#35499C"/>
<path d="M11 70.5C11 71.8807 9.88071 73 8.5 73C7.11929 73 6 71.8807 6 70.5C6 69.1193 7.11929 68 8.5 68C9.88071 68 11 69.1193 11 70.5Z" fill="#35499C"/>
<path d="M11 36.5C11 37.8807 9.88071 39 8.5 39C7.11929 39 6 37.8807 6 36.5C6 35.1193 7.11929 34 8.5 34C9.88071 34 11 35.1193 11 36.5Z" fill="#35499C"/>
<path d="M11 138.5C11 139.881 9.88071 141 8.5 141C7.11929 141 6 139.881 6 138.5C6 137.119 7.11929 136 8.5 136C9.88071 136 11 137.119 11 138.5Z" fill="#35499C"/>
<path d="M11 87.5C11 88.8807 9.88071 90 8.5 90C7.11929 90 6 88.8807 6 87.5C6 86.1193 7.11929 85 8.5 85C9.88071 85 11 86.1193 11 87.5Z" fill="#35499C"/>
<path d="M62 2.5C62 3.88071 60.8807 5 59.5 5C58.1193 5 57 3.88071 57 2.5C57 1.11929 58.1193 0 59.5 0C60.8807 0 62 1.11929 62 2.5Z" fill="#35499C"/>
<path d="M62 104.5C62 105.881 60.8807 107 59.5 107C58.1193 107 57 105.881 57 104.5C57 103.119 58.1193 102 59.5 102C60.8807 102 62 103.119 62 104.5Z" fill="#35499C"/>
<path d="M62 53.5C62 54.8807 60.8807 56 59.5 56C58.1193 56 57 54.8807 57 53.5C57 52.1193 58.1193 51 59.5 51C60.8807 51 62 52.1193 62 53.5Z" fill="#35499C"/>
<path d="M62 155.5C62 156.881 60.8807 158 59.5 158C58.1193 158 57 156.881 57 155.5C57 154.119 58.1193 153 59.5 153C60.8807 153 62 154.119 62 155.5Z" fill="#35499C"/>
<path d="M62 19.5C62 20.8807 60.8807 22 59.5 22C58.1193 22 57 20.8807 57 19.5C57 18.1193 58.1193 17 59.5 17C60.8807 17 62 18.1193 62 19.5Z" fill="#35499C"/>
<path d="M62 121.5C62 122.881 60.8807 124 59.5 124C58.1193 124 57 122.881 57 121.5C57 120.119 58.1193 119 59.5 119C60.8807 119 62 120.119 62 121.5Z" fill="#35499C"/>
<path d="M62 70.5C62 71.8807 60.8807 73 59.5 73C58.1193 73 57 71.8807 57 70.5C57 69.1193 58.1193 68 59.5 68C60.8807 68 62 69.1193 62 70.5Z" fill="#35499C"/>
<path d="M62 36.5C62 37.8807 60.8807 39 59.5 39C58.1193 39 57 37.8807 57 36.5C57 35.1193 58.1193 34 59.5 34C60.8807 34 62 35.1193 62 36.5Z" fill="#35499C"/>
<path d="M62 138.5C62 139.881 60.8807 141 59.5 141C58.1193 141 57 139.881 57 138.5C57 137.119 58.1193 136 59.5 136C60.8807 136 62 137.119 62 138.5Z" fill="#35499C"/>
<path d="M62 87.5C62 88.8807 60.8807 90 59.5 90C58.1193 90 57 88.8807 57 87.5C57 86.1193 58.1193 85 59.5 85C60.8807 85 62 86.1193 62 87.5Z" fill="#35499C"/>
<path d="M79 2.5C79 3.88071 77.8807 5 76.5 5C75.1193 5 74 3.88071 74 2.5C74 1.11929 75.1193 0 76.5 0C77.8807 0 79 1.11929 79 2.5Z" fill="#35499C"/>
<path d="M79 104.5C79 105.881 77.8807 107 76.5 107C75.1193 107 74 105.881 74 104.5C74 103.119 75.1193 102 76.5 102C77.8807 102 79 103.119 79 104.5Z" fill="#35499C"/>
<path d="M79 53.5C79 54.8807 77.8807 56 76.5 56C75.1193 56 74 54.8807 74 53.5C74 52.1193 75.1193 51 76.5 51C77.8807 51 79 52.1193 79 53.5Z" fill="#35499C"/>
<path d="M79 155.5C79 156.881 77.8807 158 76.5 158C75.1193 158 74 156.881 74 155.5C74 154.119 75.1193 153 76.5 153C77.8807 153 79 154.119 79 155.5Z" fill="#35499C"/>
<path d="M79 19.5C79 20.8807 77.8807 22 76.5 22C75.1193 22 74 20.8807 74 19.5C74 18.1193 75.1193 17 76.5 17C77.8807 17 79 18.1193 79 19.5Z" fill="#35499C"/>
<path d="M79 121.5C79 122.881 77.8807 124 76.5 124C75.1193 124 74 122.881 74 121.5C74 120.119 75.1193 119 76.5 119C77.8807 119 79 120.119 79 121.5Z" fill="#35499C"/>
<path d="M79 70.5C79 71.8807 77.8807 73 76.5 73C75.1193 73 74 71.8807 74 70.5C74 69.1193 75.1193 68 76.5 68C77.8807 68 79 69.1193 79 70.5Z" fill="#35499C"/>
<path d="M79 36.5C79 37.8807 77.8807 39 76.5 39C75.1193 39 74 37.8807 74 36.5C74 35.1193 75.1193 34 76.5 34C77.8807 34 79 35.1193 79 36.5Z" fill="#35499C"/>
<path d="M79 138.5C79 139.881 77.8807 141 76.5 141C75.1193 141 74 139.881 74 138.5C74 137.119 75.1193 136 76.5 136C77.8807 136 79 137.119 79 138.5Z" fill="#35499C"/>
<path d="M79 87.5C79 88.8807 77.8807 90 76.5 90C75.1193 90 74 88.8807 74 87.5C74 86.1193 75.1193 85 76.5 85C77.8807 85 79 86.1193 79 87.5Z" fill="#35499C"/>
</svg>
